<?xml version="1.0" standalone="no"?>
<!DOCTYPE svg PUBLIC "-//W3C//DTD SVG 20010904//EN"
 "http://www.w3.org/TR/2001/REC-SVG-20010904/DTD/svg10.dtd">
<svg version="1.0" xmlns="http://www.w3.org/2000/svg"
 width="170.000000pt" height="119.000000pt" viewBox="0 0 170.000000 119.000000"
 preserveAspectRatio="xMidYMid meet">

<g transform="translate(0.000000,119.000000) scale(0.100000,-0.100000)"
fill="#000000" stroke="none">
<path d="M0 756 l0 -433 73 4 c120 7 254 33 289 57 24 16 38 37 53 81 14 41
28 63 45 72 33 17 116 16 275 -2 171 -19 458 -19 550 0 75 16 200 71 253 112
72 55 77 135 14 205 -47 53 -92 72 -227 98 -364 69 -457 95 -499 139 -24 25
-28 36 -23 65 l6 36 -405 0 -404 0 0 -434z m1455 -62 c-51 -41 -124 -65 -227
-74 -138 -12 -201 -12 -193 0 3 6 26 10 50 10 79 0 199 21 280 49 96 33 119
37 90 15z m-876 -80 c2 -2 -16 -4 -41 -4 -85 0 -107 -9 -134 -56 -35 -60 -85
-100 -146 -119 -58 -17 -148 -20 -148 -5 0 6 13 10 29 10 16 0 60 10 97 21 68
21 87 36 172 132 13 14 35 27 50 30 28 4 114 -3 121 -9z"/>
<path d="M714 450 c-72 -23 -141 -78 -131 -104 4 -9 28 -27 54 -39 41 -19 65
-22 173 -22 111 0 130 3 168 23 50 26 54 52 16 87 -72 67 -180 88 -280 55z"/>
<path d="M1133 373 c-7 -2 -13 -13 -13 -24 0 -15 7 -19 39 -19 46 0 62 17 36
37 -19 13 -40 16 -62 6z"/>
<path d="M327 286 c-56 -15 -89 -42 -85 -70 3 -20 8 -21 128 -18 140 4 156 7
164 27 10 28 -6 45 -57 60 -60 18 -86 18 -150 1z"/>
<path d="M611 236 c-11 -13 -11 -17 2 -22 25 -9 62 0 62 16 0 21 -49 25 -64 6z"/>
</g>
</svg>
