<?xml version="1.0" standalone="no"?>
<!DOCTYPE svg PUBLIC "-//W3C//DTD SVG 20010904//EN"
 "http://www.w3.org/TR/2001/REC-SVG-20010904/DTD/svg10.dtd">
<svg version="1.0" xmlns="http://www.w3.org/2000/svg"
 width="1024.000000pt" height="1024.000000pt" viewBox="0 0 1024.000000 1024.000000"
 preserveAspectRatio="xMidYMid meet">

<g transform="translate(0.000000,1024.000000) scale(0.100000,-0.100000)"
fill="#000000" stroke="none">
<path d="M5071 9068 c-44 -81 -170 -270 -321 -478 -130 -180 -188 -280 -222
-386 -19 -58 -23 -91 -23 -204 0 -122 3 -143 28 -217 50 -146 175 -292 302
-353 102 -48 176 -63 300 -58 94 4 122 10 192 37 304 119 455 446 362 782 -37
134 -85 215 -308 518 -74 101 -163 232 -198 290 -34 58 -66 112 -70 119 -6 9
-19 -7 -42 -50z m-137 -664 c-144 -353 -137 -332 -142 -435 -4 -89 -2 -101 23
-157 32 -71 93 -133 163 -165 65 -30 188 -30 254 1 63 28 134 95 164 153 65
129 46 276 -72 543 -25 55 -43 101 -41 102 4 4 111 -159 150 -226 44 -77 67
-162 67 -248 0 -180 -82 -312 -239 -385 -58 -28 -76 -31 -151 -31 -63 1 -100
7 -143 23 -79 31 -168 114 -207 194 -72 147 -61 274 38 462 58 109 184 316
189 311 2 -2 -21 -66 -53 -142z m352 -220 c49 -133 57 -236 24 -312 -36 -84
-130 -151 -213 -152 -31 0 -46 7 -73 34 -61 61 -45 109 76 227 105 103 131
149 138 242 3 37 6 66 8 64 2 -2 20 -48 40 -103z"/>
<path d="M2632 9042 c-29 -26 -52 -51 -52 -56 0 -10 58 -73 242 -263 l118
-122 -87 -83 c-49 -46 -118 -112 -155 -147 l-66 -63 -179 182 c-98 100 -182
188 -186 196 -13 23 -31 16 -80 -28 l-47 -43 49 -205 c84 -351 66 -310 180
-423 l99 -100 124 12 c67 7 138 16 155 19 25 5 89 63 274 247 224 222 289 298
333 383 16 31 16 37 -4 110 -12 42 -29 95 -39 117 -14 33 -83 125 -135 182 -9
10 -340 99 -466 126 -20 5 -36 -4 -78 -41z"/>
<path d="M7268 8792 c-168 -171 -177 -178 -210 -174 -43 5 -89 -30 -111 -85
-20 -52 -256 -274 -305 -289 -50 -15 -77 -54 -74 -109 l2 -44 -153 -143 c-84
-79 -303 -284 -486 -455 -183 -172 -336 -313 -340 -313 -4 0 -51 22 -104 49
-53 27 -120 54 -147 60 -67 14 -395 14 -462 0 -29 -7 -109 -38 -177 -70 -68
-33 -125 -59 -127 -59 -3 0 -183 177 -402 394 -218 216 -429 420 -468 454 -39
33 -82 74 -97 91 -28 34 -86 150 -107 216 -17 52 -74 175 -92 199 -14 18 -17
16 -52 -45 -28 -48 -96 -123 -274 -299 -204 -202 -234 -235 -214 -238 14 -2
33 5 45 15 39 34 61 49 53 35 -5 -8 56 -78 176 -205 293 -308 755 -766 783
-777 41 -16 76 -12 131 14 58 27 89 62 106 118 11 36 9 45 -11 84 -13 24 -51
69 -85 101 -33 32 -164 158 -290 280 -181 176 -233 220 -243 211 -8 -6 -12
-15 -11 -19 2 -4 73 -79 158 -166 251 -256 250 -255 250 -305 0 -24 -7 -54
-16 -66 -31 -45 -101 -65 -146 -41 -11 6 -121 113 -244 238 -246 249 -250 255
-219 336 19 50 58 88 110 105 l35 11 -104 107 c-57 59 -116 121 -131 139 l-26
32 55 66 c31 35 70 92 86 126 17 34 33 59 35 58 1 -2 8 -56 14 -120 13 -138
32 -206 76 -274 18 -27 209 -225 425 -440 440 -438 470 -468 470 -475 0 -5
-359 -167 -418 -188 l-37 -13 -395 393 c-518 517 -563 547 -763 507 -31 -7
-57 -16 -57 -20 0 -5 55 -41 122 -81 68 -39 139 -85 159 -101 20 -16 126 -124
235 -240 110 -116 272 -287 362 -381 89 -93 162 -174 162 -178 0 -7 -101 -57
-223 -110 -58 -25 -20 -44 -352 173 -665 436 -635 414 -682 517 -17 36 -27 79
-30 132 l-6 79 -53 33 c-30 18 -56 40 -59 49 -3 9 -18 20 -33 24 -15 4 -68 24
-119 46 -51 21 -96 39 -100 39 -5 0 -24 -30 -42 -67 -30 -61 -332 -720 -367
-800 l-14 -32 49 -22 c40 -17 50 -26 53 -47 3 -24 14 -32 97 -65 l94 -39 56
16 c68 18 195 36 260 36 63 0 78 -9 479 -269 l329 -215 -51 -60 c-28 -34 -64
-82 -80 -107 -25 -40 -36 -48 -68 -52 -83 -11 -179 -81 -218 -157 -9 -19 -22
-57 -29 -85 -7 -27 -21 -80 -33 -117 l-21 -68 -273 0 -274 0 0 -256 c0 -236 2
-258 21 -300 31 -70 18 -71 -29 -2 l-42 63 0 122 0 121 -31 26 c-17 14 -35 26
-39 26 -5 0 -10 37 -12 83 l-3 82 -107 3 -107 3 -3 -43 -3 -43 -85 2 c-47 1
-104 0 -127 -3 l-43 -5 0 -59 0 -59 -43 -6 c-23 -4 -84 -5 -135 -3 l-92 4 0
-75 c0 -82 -8 -105 -32 -96 -14 6 -17 -11 -23 -119 -9 -158 -1 -236 25 -236
23 0 30 -19 30 -86 l0 -54 130 0 130 0 0 -65 0 -65 131 0 c106 0 133 -3 146
-16 12 -12 26 -14 52 -10 20 4 62 10 94 13 57 6 57 6 57 39 l0 34 308 0 c169
0 323 -3 343 -6 36 -6 37 -8 69 -101 18 -52 47 -116 64 -142 37 -55 107 -104
181 -127 53 -17 54 -18 60 -65 10 -74 53 -152 170 -309 59 -80 112 -156 118
-170 6 -14 13 -124 16 -244 l6 -219 27 -20 c28 -21 58 -19 93 9 19 14 20 28
21 190 1 96 4 178 8 181 11 11 77 -42 105 -84 17 -25 31 -63 35 -93 l7 -50 57
-1 c31 0 65 -2 74 -4 10 -2 18 6 22 21 8 32 19 30 65 -12 67 -60 73 -88 74
-366 l2 -244 -30 -45 c-41 -61 -41 -126 0 -169 37 -38 82 -47 128 -25 71 33
90 111 49 192 -20 39 -22 57 -22 239 0 200 7 250 40 294 17 23 19 23 44 7 14
-10 36 -36 48 -60 22 -41 23 -52 26 -352 3 -333 5 -315 -53 -396 -26 -37 -30
-51 -30 -110 0 -81 18 -112 85 -146 56 -29 94 -29 150 0 54 27 80 61 87 115 8
60 -4 105 -42 161 l-35 51 0 197 c0 171 3 207 21 268 27 90 40 109 73 101 37
-9 90 -66 119 -128 l26 -53 2 -515 c1 -564 3 -546 -59 -614 -54 -60 -72 -97
-72 -150 0 -56 33 -123 74 -150 35 -23 43 -20 18 7 -11 12 -25 35 -31 50 -15
39 -13 127 3 156 11 21 12 17 8 -33 -5 -66 9 -107 50 -141 42 -36 115 -35 158
1 71 60 79 132 25 238 l-35 70 0 510 c0 281 5 539 10 574 12 83 44 127 108
145 l47 14 3 -60 c2 -43 -1 -64 -12 -76 -14 -15 -16 -77 -16 -492 l0 -474 50
-67 c28 -37 64 -78 80 -92 l30 -25 0 -333 c0 -326 1 -335 23 -378 26 -53 73
-87 132 -96 89 -13 193 48 215 127 6 19 10 175 10 358 l0 323 61 66 c108 115
99 60 99 599 0 462 0 473 -20 483 -17 9 -20 21 -20 72 l0 61 37 -6 c49 -8 82
-34 107 -83 20 -38 21 -55 24 -599 1 -308 0 -570 -3 -583 -3 -13 -23 -42 -44
-65 -79 -87 -91 -156 -43 -248 23 -43 38 -59 82 -82 46 -24 63 -28 104 -23 96
11 174 83 191 178 10 55 -17 134 -69 197 -24 29 -49 72 -55 95 -8 29 -11 194
-9 557 l3 516 36 59 c33 53 113 124 140 124 5 0 9 -67 9 -150 l0 -150 74 0 74
0 4 153 c3 145 4 154 30 199 28 47 71 88 92 88 22 0 36 -115 36 -287 l0 -170
-35 -67 c-40 -76 -43 -113 -16 -173 25 -53 60 -76 120 -77 99 -2 176 90 152
181 -6 22 -24 60 -41 84 l-30 44 0 221 c0 264 8 302 75 370 25 24 51 44 58 44
7 0 33 -44 58 -97 l44 -98 -1 -145 0 -145 -32 -49 c-35 -55 -39 -89 -18 -141
35 -84 169 -86 212 -3 21 41 14 115 -14 156 -21 29 -22 39 -22 307 0 314 2
322 81 378 l39 28 0 -171 0 -172 30 -30 c34 -34 68 -33 107 4 21 19 22 29 25
237 4 251 -5 225 143 423 95 127 129 191 148 275 14 61 16 63 90 89 110 39
160 98 210 245 l32 94 105 6 c151 8 671 -1 692 -12 55 -30 194 9 252 70 17 17
38 31 48 31 48 0 88 56 88 121 0 22 5 29 20 29 23 0 60 37 60 61 0 18 37 29
99 29 28 0 44 7 63 28 25 26 27 33 29 148 3 110 1 123 -20 157 -23 37 -23 37
-91 37 l-68 0 -7 33 c-10 45 -32 77 -55 77 -19 0 -23 8 -35 67 -8 39 -47 73
-84 73 -15 0 -31 8 -38 19 -7 10 -38 33 -70 51 l-58 32 -461 -2 c-377 -1 -462
1 -472 12 -6 8 -21 50 -33 93 -24 91 -40 125 -81 177 -34 43 -137 98 -184 98
-27 0 -36 6 -58 44 -14 24 -42 65 -62 91 -19 26 -32 51 -27 55 8 7 100 63 601
366 345 209 395 226 586 204 96 -11 122 -11 187 3 92 18 147 44 220 101 137
107 203 297 165 470 -10 42 -21 76 -24 76 -4 0 -30 -19 -57 -43 -94 -82 -299
-247 -306 -247 -9 0 -267 323 -273 342 -3 7 47 57 117 116 210 178 214 181
198 191 -20 13 -128 31 -182 31 -168 0 -355 -125 -438 -293 -23 -45 -55 -120
-72 -166 -21 -57 -43 -95 -68 -120 -34 -34 -305 -201 -611 -376 -74 -43 -202
-118 -285 -168 -82 -50 -157 -90 -165 -90 -9 1 -55 20 -103 42 -48 22 -110 50
-139 62 -29 12 -57 25 -61 29 -7 6 721 730 741 738 4 1 29 -16 56 -38 49 -40
73 -48 104 -31 9 6 106 97 215 203 208 204 213 212 187 273 -7 17 18 47 163
192 l172 173 -155 155 c-85 85 -157 155 -160 155 -3 0 -90 -81 -195 -180 -104
-99 -194 -179 -200 -177 -29 10 1 47 165 206 99 95 180 179 180 185 0 14 -303
316 -317 316 -6 0 -89 -80 -185 -178z m198 114 c8 -8 14 -18 14 -23 0 -4 -74
-80 -164 -168 -138 -135 -167 -159 -180 -149 -9 6 -16 15 -16 20 0 8 320 334
328 334 2 0 10 -6 18 -14z m99 -180 c-9 -14 -67 -71 -128 -128 -78 -72 -100
-89 -73 -55 32 40 204 206 214 207 1 0 -5 -11 -13 -24z m-272 -432 c302 -292
349 -339 358 -356 12 -22 -37 -83 -174 -215 -67 -65 -114 -103 -127 -103 -14
0 -95 71 -238 207 -119 115 -224 217 -233 228 -15 17 -20 18 -44 7 l-27 -12
50 -58 c28 -31 106 -112 174 -179 103 -101 122 -124 112 -137 -6 -9 -13 -16
-16 -16 -3 0 -101 94 -218 208 l-213 208 17 32 c14 27 20 31 35 22 16 -8 43
15 187 160 92 94 171 170 176 170 4 0 86 -75 181 -166z m585 144 c-8 -12 -62
-65 -119 -118 -57 -52 -97 -86 -89 -75 16 21 212 214 219 215 2 0 -3 -10 -11
-22z m-1256 -565 c-5 -10 -12 -47 -15 -82 l-5 -64 99 -100 c70 -72 99 -108 99
-125 0 -19 4 -23 18 -17 28 12 102 22 107 15 2 -4 -51 -60 -118 -126 -67 -65
-201 -196 -299 -292 -151 -150 -180 -174 -200 -168 -59 15 -57 21 32 111 l85
85 -85 85 c-47 47 -89 85 -95 85 -6 0 -40 -29 -75 -65 -35 -36 -68 -65 -72
-65 -26 0 6 41 114 149 l122 122 96 -96 c52 -52 100 -95 105 -95 6 0 52 40
103 89 l92 88 0 57 c0 57 -1 58 -60 118 -61 60 -83 68 -103 36 -9 -14 -2 -27
41 -72 61 -64 65 -90 22 -131 l-30 -29 -82 79 c-45 44 -90 89 -100 99 -18 19
-19 19 -54 -15 -146 -139 -364 -366 -364 -379 0 -8 34 -53 75 -99 74 -82 86
-103 48 -82 -10 6 -80 40 -157 75 l-138 66 28 32 c16 18 88 89 161 158 72 69
235 225 362 348 215 207 266 249 243 205z m1469 -214 c-49 -110 -52 -282 -8
-402 30 -81 63 -131 137 -205 50 -50 52 -53 20 -36 -19 10 -60 44 -91 74 -156
154 -181 405 -59 597 22 34 22 21 1 -28z m-5855 -25 c46 -25 84 -47 84 -49 0
-2 -9 -23 -19 -47 -10 -24 -57 -131 -104 -238 -163 -373 -150 -352 -201 -329
l-25 12 36 71 c44 88 213 457 213 466 0 6 -45 30 -56 30 -5 0 -42 -77 -154
-320 -132 -285 -172 -356 -191 -344 -5 3 -9 0 -9 -5 0 -6 -4 -11 -10 -11 -11
0 -13 30 -4 54 3 9 10 14 14 11 5 -3 11 -1 15 5 3 5 1 10 -4 10 -19 0 -13 20
43 144 30 67 84 189 121 271 36 83 83 187 103 232 21 46 43 83 51 83 8 0 52
-20 97 -46z m6056 -519 c76 -57 102 -71 170 -90 l53 -15 -53 4 c-106 10 -225
90 -282 190 -42 72 -37 79 10 14 22 -31 68 -77 102 -103z m-5579 -97 c516
-325 577 -365 577 -381 0 -5 -30 8 -67 29 -69 38 -113 65 -418 252 -265 163
-298 182 -322 182 -34 0 -63 -34 -63 -74 0 -43 7 -48 225 -181 387 -235 653
-407 637 -413 -19 -6 -117 49 -492 278 -102 62 -223 136 -269 164 -46 28 -100
65 -119 83 -32 30 -34 36 -29 78 2 25 13 55 23 67 26 29 74 49 102 42 13 -2
110 -59 215 -126z m5263 98 c28 -28 34 -42 34 -76 0 -55 -12 -75 -63 -103 -23
-14 -123 -70 -222 -125 -99 -55 -297 -166 -439 -246 -248 -139 -286 -158 -286
-137 0 14 166 118 410 256 47 26 130 74 185 106 55 32 150 85 210 118 61 33
122 67 138 75 50 27 32 101 -29 120 -13 4 -39 -6 -80 -30 -80 -49 -616 -354
-737 -421 -93 -50 -127 -63 -127 -45 0 10 151 104 360 224 155 89 240 138 455
264 111 65 142 69 191 20z m-2620 -45 c33 -22 89 -67 126 -99 36 -33 111 -84
165 -113 54 -29 159 -87 233 -129 170 -97 247 -139 490 -266 l195 -102 16 31
17 31 -177 94 c-458 244 -502 272 -461 297 7 5 663 -318 718 -354 11 -6 7 -20
-17 -65 l-30 -56 57 -29 c31 -16 113 -54 182 -86 69 -32 136 -66 151 -76 26
-19 85 -129 113 -215 15 -46 16 -126 14 -865 l-3 -814 -23 -58 c-13 -31 -51
-94 -85 -140 -33 -45 -77 -111 -97 -147 l-35 -65 -355 -176 c-596 -296 -854
-419 -893 -426 -39 -6 -127 13 -127 28 0 5 26 9 59 9 32 0 76 7 97 16 36 15
163 77 897 438 l297 146 28 52 c15 28 45 74 67 102 68 86 85 113 108 173 21
57 21 66 25 808 3 534 0 765 -8 802 -22 102 -124 156 -244 129 -31 -8 -66 -22
-77 -32 -20 -18 -20 -18 -18 136 1 176 10 158 -101 211 l-60 28 -26 -52 c-37
-73 -95 -169 -100 -164 -3 2 13 42 35 88 69 145 83 123 -140 235 -107 53 -288
147 -404 209 -115 61 -265 140 -332 175 l-123 64 -94 -92 -94 -93 -191 1
c-105 1 -202 5 -215 8 -14 4 -58 39 -98 77 -40 39 -81 76 -90 84 -19 14 -35 6
-503 -244 -115 -62 -290 -152 -387 -200 -98 -49 -178 -92 -178 -96 0 -4 20
-55 44 -113 25 -58 41 -106 37 -106 -5 0 -30 41 -56 90 -73 137 -62 130 -134
95 l-61 -29 0 -208 c0 -208 0 -209 -29 -271 l-28 -63 -144 -43 c-79 -24 -149
-44 -155 -46 -15 -5 -19 -1214 -4 -1308 13 -82 51 -162 113 -237 25 -30 60
-82 79 -114 l33 -59 575 -288 c316 -159 590 -292 608 -295 61 -12 101 10 191
100 l84 84 -44 22 c-24 13 -138 67 -253 122 -423 199 -766 372 -766 385 0 7 4
13 9 13 9 0 290 -117 446 -185 55 -24 228 -104 385 -178 240 -112 286 -137
288 -156 3 -18 -21 -47 -105 -131 -100 -99 -113 -109 -157 -115 -26 -4 -64 -5
-84 -2 -32 4 -1163 560 -1199 589 -7 5 -28 39 -48 76 -20 36 -56 91 -79 121
-24 31 -54 76 -69 101 -56 97 -56 97 -62 941 -5 695 -4 784 10 840 19 71 74
186 101 210 11 10 105 59 211 111 l191 94 -30 57 c-19 35 -28 61 -22 66 5 5
170 91 366 191 348 176 357 180 368 159 7 -11 8 -25 3 -29 -13 -13 -180 -104
-418 -228 -121 -63 -223 -117 -228 -121 -9 -9 11 -71 23 -71 5 0 33 13 62 29
29 15 116 61 193 101 77 40 253 137 390 215 138 78 282 159 322 178 39 20 77
45 85 54 21 30 151 141 183 157 24 13 68 16 221 16 l192 0 58 -39z m274 -675
c146 -65 279 -130 296 -145 228 -191 563 -480 616 -531 l68 -65 0 -567 c0
-428 -3 -574 -12 -594 -10 -22 -47 -44 -178 -107 -91 -43 -183 -87 -205 -97
-22 -9 -141 -65 -265 -123 -339 -158 -375 -175 -504 -233 -66 -30 -123 -54
-127 -54 -3 0 -9 9 -12 21 -4 13 16 63 55 142 78 157 81 182 29 267 -21 36
-38 66 -37 67 1 1 123 1 271 1 682 -4 661 -5 683 15 11 10 25 38 31 62 7 29
20 51 36 61 l26 17 -3 336 -3 336 -28 65 c-61 142 -73 163 -116 202 -40 38
-45 40 -52 22 -23 -61 -122 -108 -262 -126 -88 -11 -94 -10 -142 12 -47 21
-69 23 -390 33 -452 13 -903 -1 -983 -32 -41 -17 -65 -20 -110 -15 -134 14
-244 58 -278 109 -22 33 -32 31 -77 -11 -40 -38 -67 -84 -86 -149 -7 -22 -22
-58 -34 -80 -21 -38 -22 -53 -25 -362 l-3 -321 30 -31 c17 -17 35 -48 41 -69
19 -74 29 -77 234 -77 99 0 186 2 191 4 6 2 133 3 282 2 l273 -1 -36 -65 c-21
-38 -36 -79 -36 -99 0 -30 87 -224 113 -250 10 -11 13 -96 4 -96 -3 0 -110 50
-237 111 -126 60 -364 172 -527 248 -495 232 -490 229 -512 264 -18 31 -19 56
-19 597 l0 565 69 66 c59 57 524 466 614 540 18 15 86 49 152 77 66 28 188 80
270 117 l150 65 250 -2 250 -3 265 -119z m-1806 -122 c21 -21 20 -40 -4 -64
-25 -25 -42 -25 -62 -2 -28 32 -29 41 -6 61 26 25 51 27 72 5z m2648 -11 c34
-31 16 -73 -32 -73 -14 0 -31 5 -38 12 -13 13 -16 60 -5 71 12 13 56 7 75 -10z
m-3598 -320 c-4 -10 -8 -67 -9 -128 -1 -60 -6 -119 -11 -130 -5 -12 -9 -225
-9 -505 0 -472 1 -486 20 -505 18 -18 20 -31 17 -137 -3 -106 -5 -118 -21
-118 -23 0 -89 44 -118 79 -29 34 -28 53 4 108 25 43 26 48 15 102 -16 77 -17
933 -1 963 9 17 5 31 -20 81 -17 33 -31 66 -31 73 0 20 51 75 99 106 52 33 77
37 65 11z m4526 1 c44 -30 110 -98 110 -114 0 -9 -9 -34 -20 -55 -20 -39 -21
-56 -21 -596 -1 -546 0 -556 20 -590 12 -19 21 -39 21 -46 0 -23 -63 -84 -112
-109 -43 -22 -48 -23 -48 -7 0 10 -2 66 -5 124 -5 97 -4 107 15 124 20 18 20
29 20 515 0 357 -3 499 -11 507 -16 16 -19 263 -4 263 6 0 22 -7 35 -16z
m-440 -84 c52 -37 56 -104 9 -160 -17 -21 -19 -22 -10 -3 16 32 -44 152 -77
153 -31 0 -39 -26 -16 -53 31 -36 44 -65 44 -98 0 -24 4 -30 15 -25 8 3 15 2
15 -3 0 -16 -53 -22 -82 -10 -29 12 -64 65 -68 104 -5 42 1 58 31 86 38 36 96
39 139 9z m1613 -287 c3 -25 2 -204 -1 -399 l-5 -353 -25 -6 c-13 -3 -27 -3
-31 0 -7 7 -7 79 -3 516 l2 296 29 -5 c26 -3 29 -8 34 -49z m-103 -28 l0 -65
-350 -1 c-192 -1 -356 -2 -362 -3 -10 -1 -14 -80 -16 -353 l-2 -353 -40 0 -40
0 0 414 c0 322 3 415 13 419 6 3 189 6 405 6 l392 1 0 -65z m206 -238 c1 -297
-4 -371 -28 -375 -17 -3 -18 18 -18 329 l0 333 23 -22 c22 -22 22 -28 23 -265z
m-6116 -147 c0 -327 -2 -390 -14 -390 -23 0 -26 24 -26 209 l0 177 -42 69
c-62 100 -68 97 -68 -32 0 -120 -8 -185 -21 -177 -5 3 -9 93 -9 200 l0 194
-120 0 -120 0 0 -192 c0 -197 -5 -251 -21 -226 -5 7 -9 133 -9 280 0 246 1
267 18 270 9 2 110 4 225 6 l207 2 0 -390z m-752 -12 l-3 -393 -26 -3 -26 -3
-6 98 c-9 129 -9 678 0 686 3 4 19 7 35 7 l28 0 -2 -392z m6974 317 c9 -67 9
-213 1 -367 -5 -108 -9 -127 -23 -131 -24 -6 -30 61 -30 335 l0 219 23 -3 c18
-2 23 -11 29 -53z m-7134 -317 c2 -270 0 -308 -13 -308 -8 0 -15 -4 -15 -10 0
-5 4 -10 8 -10 9 0 5 -54 -6 -80 -10 -25 -20 97 -21 268 l-1 162 -49 0 -49 0
-7 -215 c-4 -118 -11 -215 -16 -215 -10 0 -12 623 -3 680 l6 35 81 0 82 0 3
-307z m7229 139 c4 -73 3 -100 -8 -113 -12 -14 -13 -14 -20 3 -10 27 2 226 13
215 5 -5 12 -53 15 -105z m-4787 39 c47 -14 117 -28 155 -32 97 -8 102 -10 71
-35 -14 -11 -26 -29 -26 -39 0 -42 167 -469 196 -501 17 -18 37 -19 625 -19
l608 0 35 73 c40 83 135 317 161 396 l18 55 -27 22 c-14 13 -26 27 -26 32 0 5
35 12 78 15 42 3 118 18 167 32 50 15 97 29 106 32 19 5 37 -53 46 -153 6 -63
6 -64 -23 -75 -36 -13 -235 -65 -286 -73 -37 -7 -37 -7 -68 -103 -16 -53 -28
-98 -26 -101 3 -2 100 23 217 57 116 34 213 60 214 59 4 -4 22 -164 31 -269 6
-74 5 -76 -17 -82 -35 -8 -207 -26 -350 -36 -115 -8 -129 -7 -194 14 -70 22
-71 22 -680 20 -589 -3 -612 -4 -666 -24 -55 -20 -60 -20 -240 -6 -179 14
-234 20 -292 31 -24 5 -27 10 -23 32 2 15 10 93 17 175 7 81 16 147 19 147 4
0 100 -27 215 -60 115 -33 211 -57 213 -55 5 5 -45 165 -58 185 -4 6 -54 21
-111 34 -119 27 -208 52 -227 65 -11 6 -10 25 3 99 19 113 24 125 44 119 9 -3
54 -17 101 -31z m2688 -453 c4 -441 4 -442 -17 -477 -64 -103 -193 -178 -721
-417 -124 -56 -274 -124 -335 -152 -392 -177 -391 -177 -383 -112 3 23 17 32
128 79 69 29 206 90 305 136 99 45 227 104 285 130 58 26 195 90 305 143 110
52 216 102 235 110 59 25 118 75 140 116 19 37 20 59 20 293 0 362 11 634 24
611 6 -11 12 -181 14 -460z m-3303 2 c4 -214 11 -404 16 -421 20 -65 70 -96
414 -259 182 -86 401 -189 487 -228 86 -40 155 -73 154 -74 -6 -7 -180 38
-261 67 -241 86 -646 276 -735 345 -33 25 -71 63 -85 83 l-25 37 0 340 c0 187
3 392 7 455 12 197 22 76 28 -345z m2213 410 l74 -40 -114 -3 c-263 -5 -1198
-7 -1198 -1 0 3 24 21 53 40 37 24 69 35 112 40 33 4 272 6 530 5 l470 -1 73
-40z m-4278 15 c0 -18 -7 -20 -69 -20 l-68 0 -7 -61 c-3 -34 -6 -100 -6 -145
l0 -84 -30 0 -30 0 0 165 0 165 105 0 c98 0 105 -1 105 -20z m7648 -22 c15
-15 16 -54 2 -63 -6 -3 -13 1 -16 9 -5 12 -20 16 -60 16 -51 0 -54 1 -54 25 0
24 3 25 58 25 32 0 63 -5 70 -12z m-3555 -165 c70 -3 127 -10 127 -15 0 -12
-1057 -10 -1065 2 -3 5 31 11 87 13 187 6 726 7 851 0z m-133 -183 l0 -100
-270 0 -270 0 0 100 0 100 270 0 270 0 0 -100z m-632 23 c-27 -2 -69 -2 -95 0
-27 2 -5 3 47 3 52 0 74 -1 48 -3z m820 0 c-27 -2 -69 -2 -95 0 -27 2 -5 3 47
3 52 0 74 -1 48 -3z m-4250 -95 c46 -12 46 -12 17 -19 -16 -4 -51 -7 -77 -8
-42 -1 -48 2 -48 19 0 24 36 27 108 8z m7250 -93 c3 -27 -14 -49 -30 -39 -10
6 -11 58 -1 68 13 13 28 -1 31 -29z m-3439 -337 c-12 -23 -44 -75 -70 -115
-27 -40 -49 -74 -49 -77 0 -3 14 -29 32 -57 l31 -51 61 6 c93 10 127 57 91
127 -15 28 -15 31 5 56 11 15 20 20 20 12 0 -8 16 -38 35 -66 l35 -52 -49 -93
c-41 -79 -52 -94 -77 -98 -34 -6 -33 38 -9 -415 17 -316 20 -352 41 -400 8
-19 14 -46 14 -61 0 -21 -3 -25 -17 -19 -49 20 -53 19 -53 -18 0 -38 -12 -47
-61 -47 -28 0 -29 2 -29 45 0 49 -2 50 -62 36 -21 -5 -38 -8 -38 -6 0 1 13 31
29 66 27 59 30 78 40 256 6 106 14 276 18 377 l6 184 -27 4 c-23 3 -35 17 -78
99 l-50 97 75 123 c72 119 76 124 113 129 22 3 40 5 42 4 2 -1 -7 -22 -19 -46z
m-1740 -112 c53 -28 77 -97 51 -147 -10 -18 -13 -17 -46 16 -34 34 -34 35 -20
70 13 30 13 37 1 41 -18 7 -52 -12 -65 -36 -11 -20 3 -40 68 -105 21 -21 21
-24 7 -39 -20 -20 -57 -21 -93 -2 -30 15 -71 94 -55 105 6 3 16 17 23 31 l13
25 -23 -20 -23 -20 13 25 c35 69 86 88 149 56z m3571 -8 c33 -21 52 -66 45
-107 -6 -34 -36 -81 -51 -81 -12 0 8 54 24 67 15 11 15 12 -5 13 -17 0 -29 13
-48 51 -18 35 -31 49 -43 47 -25 -5 -26 -44 -3 -67 31 -31 26 -41 -24 -41 -25
0 -45 -4 -45 -8 0 -10 45 -32 65 -32 13 0 35 -29 35 -45 0 -3 -16 -5 -37 -3
-46 4 -74 40 -80 105 -8 77 44 128 116 117 18 -3 41 -10 51 -16z m-480 -307
c0 -10 -325 -171 -555 -276 -88 -40 -250 -114 -359 -164 -110 -50 -201 -90
-202 -88 -1 1 -5 14 -9 28 -7 30 0 37 75 68 30 13 150 66 265 118 229 104 436
194 615 267 63 26 124 51 135 55 21 9 35 5 35 -8z m-1297 -1011 l107 0 0 -75
0 -75 -60 0 -60 0 0 -365 0 -365 65 0 c50 0 65 -3 65 -14 0 -27 -21 -71 -48
-98 -25 -27 -28 -28 -139 -28 -62 0 -113 2 -113 4 0 2 -3 11 -6 20 -5 14 5 16
72 16 l79 0 -37 35 -38 34 0 379 0 380 -22 6 c-13 3 -42 6 -65 6 -58 0 -55 17
5 26 73 10 77 16 42 52 -16 18 -30 41 -30 53 0 19 4 21 38 15 20 -3 85 -6 145
-6z m56 -582 c1 -148 -3 -239 -9 -243 -7 -4 -10 95 -9 292 1 184 5 277 9 243
5 -30 8 -162 9 -292z m-79 -827 c0 -291 -1 -310 -19 -332 -18 -22 -21 -23 -37
-7 -19 19 -19 4 -16 366 l2 282 35 0 35 0 0 -309z m450 -29 c29 -34 50 -65 47
-68 -9 -10 -75 45 -97 81 -19 31 -29 79 -12 60 5 -6 32 -38 62 -73z"/>
<path d="M7137 8132 c-25 -28 -22 -87 5 -106 32 -23 65 -20 93 9 29 28 32 61
9 93 -20 28 -83 31 -107 4z"/>
<path d="M7355 8036 c-94 -41 -129 -152 -79 -249 16 -31 69 -67 97 -67 38 0
207 185 207 226 0 21 -50 74 -87 93 -29 15 -101 13 -138 -3z m63 -186 c-3 -37
-33 -54 -49 -28 -15 24 -10 76 9 87 24 14 44 -14 40 -59z"/>
<path d="M6837 6149 c7 -7 15 -10 18 -7 3 3 -2 9 -12 12 -14 6 -15 5 -6 -5z"/>
<path d="M6957 6084 c7 -3 11 -11 9 -17 -1 -7 -1 -8 2 -3 2 4 15 -5 29 -20 17
-21 21 -23 14 -7 -14 28 -40 53 -54 52 -9 0 -9 -2 0 -5z"/>
<path d="M7030 5990 c6 -11 13 -20 16 -20 2 0 0 9 -6 20 -6 11 -13 20 -16 20
-2 0 0 -9 6 -20z"/>
<path d="M4920 6133 c-186 -10 -372 -30 -457 -48 -22 -5 -89 -106 -209 -313
l-59 -103 -10 33 c-18 60 -21 61 -103 54 -42 -3 -92 -14 -111 -24 -33 -16 -36
-21 -39 -67 -2 -44 1 -54 23 -75 22 -21 38 -25 93 -27 37 -1 87 -9 112 -18 42
-16 77 -17 490 -6 341 9 547 9 883 0 442 -11 509 -9 543 16 13 9 34 12 65 8
56 -7 113 11 134 40 21 30 19 93 -4 116 -34 34 -193 55 -219 29 -7 -7 -12 -21
-12 -32 -1 -57 -21 -33 -120 135 -144 248 -130 235 -270 254 -201 26 -529 39
-730 28z m345 -123 c105 -5 225 -13 268 -16 l78 -7 25 -55 c29 -65 30 -76 7
-68 -41 16 -313 36 -490 36 -366 0 -468 -28 -723 -199 -73 -50 -136 -88 -138
-86 -2 2 40 87 94 188 l98 185 120 7 c67 4 186 11 266 15 80 4 159 7 175 8 17
1 116 -3 220 -8z"/>
<path d="M6850 5711 c0 -6 4 -13 10 -16 6 -3 7 1 4 9 -7 18 -14 21 -14 7z"/>
<path d="M3930 4886 c0 -2 -6 -39 -14 -82 -8 -44 -17 -97 -20 -120 l-6 -41
173 -16 c94 -9 205 -20 246 -23 l74 -7 -43 79 c-73 134 -61 125 -227 172 -136
39 -183 48 -183 38z"/>
<path d="M6110 4849 c-74 -22 -144 -44 -155 -48 -17 -7 -115 -174 -115 -196 0
-9 82 -3 319 22 l163 18 -6 54 c-13 109 -36 191 -54 190 -9 0 -78 -18 -152
-40z"/>
<path d="M3263 4193 c-29 -10 -13 -33 23 -33 28 0 35 3 32 18 -3 16 -29 23
-55 15z"/>
<path d="M4049 8815 c-50 -27 -44 -104 10 -123 32 -11 64 0 85 30 21 29 20 51
-1 76 -24 28 -62 35 -94 17z"/>
<path d="M6100 8823 c-43 -18 -53 -85 -19 -122 40 -43 119 -4 119 59 0 43 -58
80 -100 63z"/>
<path d="M3657 8752 c-37 -41 -7 -104 50 -104 30 0 63 33 63 63 0 49 -80 78
-113 41z"/>
<path d="M6456 8748 c-33 -47 -5 -100 51 -100 30 0 63 33 63 63 0 52 -85 79
-114 37z"/>
<path d="M4416 8714 c-19 -18 -21 -55 -4 -72 7 -7 24 -12 38 -12 34 0 50 17
50 52 0 21 -6 31 -26 38 -34 13 -40 13 -58 -6z"/>
<path d="M5722 8708 c-35 -35 9 -96 54 -76 29 13 39 41 24 68 -12 23 -58 28
-78 8z"/>
<path d="M4026 8510 l-28 -70 -61 -1 c-34 -1 -68 -1 -74 0 -26 4 -11 -19 44
-67 l57 -50 -18 -72 c-9 -40 -15 -74 -12 -77 2 -2 32 13 66 35 l63 39 69 -39
c38 -22 71 -38 74 -35 3 2 -4 39 -15 81 l-19 77 54 46 c30 26 54 50 54 55 0 4
-33 8 -74 8 l-73 0 -31 70 c-17 39 -35 70 -40 70 -5 0 -21 -31 -36 -70z"/>
<path d="M6129 8510 l-32 -70 -73 0 c-41 0 -74 -3 -74 -7 0 -5 25 -30 56 -58
l56 -50 -21 -74 c-11 -41 -19 -76 -18 -78 2 -1 32 15 68 36 l64 39 72 -40 c40
-22 73 -35 73 -28 0 6 -8 41 -17 77 l-16 67 56 52 c31 28 57 54 57 58 0 3 -33
6 -73 6 -82 0 -74 -6 -116 93 -11 26 -22 47 -25 47 -4 0 -20 -31 -37 -70z"/>
<path d="M4260 7985 c0 -2 10 -10 23 -16 20 -11 21 -11 8 4 -13 16 -31 23 -31
12z"/>
<path d="M5935 7980 c-3 -5 -2 -10 4 -10 5 0 13 5 16 10 3 6 2 10 -4 10 -5 0
-13 -4 -16 -10z"/>
<path d="M5901 7937 c-13 -21 -12 -21 5 -5 10 10 16 20 13 22 -3 3 -11 -5 -18
-17z"/>
<path d="M1552 7883 c-15 -31 -23 -58 -17 -60 6 -2 33 -18 60 -35 63 -41 37
-52 -32 -14 -25 15 -47 25 -48 24 -12 -18 -105 -216 -105 -225 0 -6 14 -21 30
-33 44 -31 37 -44 -10 -20 l-41 21 -24 -56 c-29 -65 -29 -65 -11 -65 7 0 20
-8 27 -17 15 -18 15 -18 -34 2 -11 5 -20 -8 -56 -82 -11 -21 -7 -25 41 -49 64
-32 62 -30 53 -43 -4 -7 -23 -2 -55 14 -27 14 -53 25 -58 25 -5 0 -19 -23 -30
-50 l-21 -50 59 -30 c33 -17 61 -30 64 -30 2 0 12 21 22 48 10 26 35 79 55
117 21 39 56 113 79 165 23 52 56 127 75 165 78 164 125 268 125 274 0 6 -104
61 -115 61 -3 0 -18 -25 -33 -57z m-47 -223 c3 -5 -1 -10 -9 -10 -9 0 -16 5
-16 10 0 6 4 10 9 10 6 0 13 -4 16 -10z"/>
<path d="M4220 7923 c5 -2 8 -9 5 -14 -4 -5 -2 -17 4 -26 8 -15 9 -12 7 12 -2
16 -8 30 -15 31 -6 2 -7 0 -1 -3z"/>
<path d="M4331 7905 c0 -5 6 -21 14 -35 8 -14 14 -20 14 -15 0 6 -6 21 -14 35
-8 14 -14 21 -14 15z"/>
<path d="M1566 7489 c-97 -208 -176 -385 -176 -392 0 -11 89 -63 94 -55 1 2
26 57 56 123 29 66 109 239 177 385 l124 265 -22 15 c-12 8 -35 20 -49 26
l-27 12 -177 -379z"/>
<path d="M4360 7835 c0 -5 5 -17 10 -25 5 -8 10 -10 10 -5 0 6 -5 17 -10 25
-5 8 -10 11 -10 5z"/>
<path d="M4266 7817 c3 -10 9 -15 12 -12 3 3 0 11 -7 18 -10 9 -11 8 -5 -6z"/>
<path d="M1871 7792 c-5 -9 -43 -93 -86 -187 -42 -93 -117 -255 -165 -360 -48
-104 -91 -199 -94 -211 -6 -18 1 -24 46 -41 29 -12 54 -20 54 -19 1 0 36 78
79 171 42 94 114 251 160 350 89 193 117 257 113 260 -2 1 -24 13 -51 28 -43
23 -48 24 -56 9z"/>
<path d="M4300 7775 c0 -5 5 -17 10 -25 5 -8 10 -10 10 -5 0 6 -5 17 -10 25
-5 8 -10 11 -10 5z"/>
<path d="M4390 7760 c0 -5 5 -10 11 -10 5 0 7 5 4 10 -3 6 -8 10 -11 10 -2 0
-4 -4 -4 -10z"/>
<path d="M5895 7749 c-4 -6 -5 -12 -2 -15 2 -3 7 2 10 11 7 17 1 20 -8 4z"/>
<path d="M4330 7721 c0 -5 5 -13 10 -16 6 -3 10 -2 10 4 0 5 -4 13 -10 16 -5
3 -10 2 -10 -4z"/>
<path d="M4356 7667 c3 -10 9 -15 12 -12 3 3 0 11 -7 18 -10 9 -11 8 -5 -6z"/>
<path d="M3510 7628 c-11 -12 -20 -26 -20 -31 0 -18 224 -237 241 -237 23 0
51 39 41 56 -12 22 -223 234 -232 234 -5 0 -18 -10 -30 -22z"/>
<path d="M5680 7519 c-7 -11 -10 -23 -7 -25 2 -2 9 7 15 21 14 30 7 33 -8 4z"/>
<path d="M4486 7477 c3 -10 9 -15 12 -12 3 3 0 11 -7 18 -10 9 -11 8 -5 -6z"/>
<path d="M2770 7470 c0 -5 5 -10 11 -10 5 0 7 5 4 10 -3 6 -8 10 -11 10 -2 0
-4 -4 -4 -10z"/>
<path d="M2780 7346 c0 -2 8 -10 18 -17 15 -13 16 -12 3 4 -13 16 -21 21 -21
13z"/>
<path d="M3190 7136 c0 -2 8 -10 18 -17 15 -13 16 -12 3 4 -13 16 -21 21 -21
13z"/>
<path d="M7133 7122 c10 -10 14 -22 10 -26 -4 -4 0 -4 10 0 16 6 16 8 -4 25
-28 24 -37 25 -16 1z"/>
<path d="M7184 7094 c-18 -14 -18 -15 4 -4 12 6 22 13 22 15 0 8 -5 6 -26 -11z"/>
<path d="M7134 7064 c-18 -14 -18 -15 4 -4 12 6 22 13 22 15 0 8 -5 6 -26 -11z"/>
<path d="M6985 7030 c-10 -11 -15 -20 -11 -20 11 0 39 30 34 36 -3 2 -13 -5
-23 -16z"/>
<path d="M7035 7009 c-56 -32 -54 -40 3 -9 48 25 70 40 57 39 -5 -1 -32 -14
-60 -30z"/>
<path d="M3379 6968 c19 -21 37 -36 39 -33 3 3 3 6 1 8 -2 1 -20 15 -39 32
l-35 30 34 -37z"/>
<path d="M3436 6917 c3 -10 9 -15 12 -12 3 3 0 11 -7 18 -10 9 -11 8 -5 -6z"/>
<path d="M1334 6566 c-73 -27 -139 -66 -127 -76 4 -4 78 -35 163 -70 85 -35
156 -65 158 -66 2 -1 -20 -63 -50 -138 -35 -90 -58 -136 -68 -136 -8 0 -80 25
-158 55 -79 30 -145 55 -148 55 -12 0 11 -81 39 -133 56 -107 162 -176 287
-185 84 -6 161 16 255 71 64 39 76 42 151 45 75 4 103 -2 315 -58 309 -83 281
-80 297 -29 7 23 12 43 10 44 -4 3 -368 113 -400 120 -36 9 -70 48 -66 76 5
36 25 33 38 -6 6 -19 20 -40 31 -46 11 -5 111 -23 222 -40 111 -16 219 -34
241 -40 21 -6 40 -8 42 -6 2 2 15 31 28 65 l24 61 -116 26 c-293 67 -570 138
-607 156 -28 13 -56 42 -93 94 -30 41 -72 89 -94 106 -97 77 -253 100 -374 55z
m282 -55 c64 -34 108 -83 138 -155 25 -61 18 -77 -9 -20 -55 113 -168 184
-296 185 -41 1 -95 -2 -121 -6 -27 -4 -48 -5 -48 -1 0 17 102 36 185 33 80 -3
97 -7 151 -36z"/>
<path d="M8667 6530 c-81 -21 -147 -67 -208 -146 -23 -30 -55 -62 -70 -70 -15
-7 -139 -41 -276 -74 -429 -104 -429 -104 -402 -111 13 -4 17 -8 9 -8 -10 -1
-6 -7 10 -15 14 -8 29 -12 35 -9 5 4 7 3 3 -2 -4 -4 -3 -16 3 -26 6 -13 6 -19
-1 -19 -5 0 -10 -6 -10 -14 0 -8 -8 -17 -17 -20 -10 -3 -2 -3 17 0 19 2 87 11
150 20 207 27 293 43 308 58 8 7 17 28 21 46 6 32 7 32 24 16 18 -18 16 -47
-6 -74 -5 -7 -42 -21 -81 -33 -39 -11 -136 -40 -216 -64 -80 -24 -161 -48
-180 -53 -34 -8 -35 -10 -32 -53 2 -24 6 -46 8 -48 3 -3 91 19 197 48 335 93
371 102 434 103 56 1 68 -3 133 -42 99 -60 143 -74 230 -74 133 0 248 73 303
192 18 38 22 66 22 142 0 108 -18 156 -85 233 -70 79 -218 123 -323 97z m181
-139 c54 -27 89 -72 107 -136 25 -84 7 -152 -57 -211 -78 -74 -174 -88 -256
-37 -126 78 -149 232 -51 338 69 75 167 92 257 46z"/>
<path d="M8653 6364 c-144 -86 -114 -307 48 -356 80 -23 179 24 221 105 86
167 -108 348 -269 251z m178 -20 c47 -24 83 -87 82 -143 -1 -101 -71 -171
-171 -171 -114 0 -194 126 -148 233 17 40 64 85 102 97 36 11 97 4 135 -16z"/>
<path d="M2265 6485 c-14 -13 -25 -31 -25 -38 0 -42 42 -60 509 -214 34 -11
-61 48 -194 121 -77 42 -148 88 -159 102 -20 27 -66 54 -91 54 -9 0 -27 -11
-40 -25z"/>
<path d="M7913 6490 c-17 -10 -36 -27 -42 -37 -5 -11 -86 -64 -180 -118 -94
-54 -169 -100 -167 -102 4 -4 449 153 476 167 10 5 21 22 25 37 5 22 2 32 -20
50 -32 28 -51 29 -92 3z"/>
<path d="M1204 5725 c-29 -29 -30 -49 -4 -75 24 -24 38 -25 68 -4 24 17 30 65
10 81 -30 23 -49 23 -74 -2z"/>
<path d="M8962 5735 c-24 -18 -30 -63 -10 -83 21 -21 66 -14 83 12 12 18 13
30 6 50 -6 14 -15 26 -20 26 -5 0 -15 2 -23 5 -7 3 -23 -2 -36 -10z"/>
<path d="M2357 4534 c-13 -13 -7 -44 7 -44 8 0 18 -5 22 -12 5 -8 1 -9 -12 -4
-14 5 -16 4 -8 -4 28 -28 79 14 58 48 -11 18 -54 28 -67 16z m52 -13 c8 -5 11
-16 8 -26 -4 -9 -12 -13 -18 -10 -6 4 -8 14 -4 22 4 13 3 14 -10 3 -17 -14
-31 -8 -20 9 8 13 25 14 44 2z"/>
<path d="M7869 4503 c-11 -15 -11 -16 1 -5 8 6 23 12 35 11 20 0 20 0 0 -9
-14 -6 -16 -9 -5 -10 8 -2 19 -2 23 -1 5 1 5 -4 2 -10 -4 -6 -18 -9 -31 -6
-13 2 -21 0 -18 -4 8 -14 40 -10 54 6 10 12 10 18 0 30 -17 20 -45 19 -61 -2z"/>
<path d="M8181 4340 c-159 -165 -178 -181 -202 -175 -23 6 -38 -7 -146 -119
-103 -108 -122 -124 -133 -111 -21 26 -44 16 -89 -40 -24 -30 -48 -55 -53 -55
-6 0 -23 11 -40 25 -16 14 -33 25 -37 25 -10 0 -104 -93 -148 -147 -35 -43
-36 -45 -21 -71 42 -71 52 -335 19 -464 -26 -99 -81 -219 -128 -277 -21 -25
-198 -208 -395 -406 -352 -355 -358 -360 -416 -377 -104 -30 -196 -122 -223
-221 -15 -56 -6 -152 18 -208 47 -107 156 -179 269 -179 167 0 292 113 312
281 l7 56 305 313 c390 400 480 482 586 531 155 73 305 88 487 47 l97 -22 81
79 c44 44 99 101 121 128 l40 47 -32 37 -33 37 27 22 c31 28 31 28 5 66 l-22
30 143 143 c133 133 141 143 129 164 -13 20 -4 31 154 189 133 133 167 173
167 194 0 22 -53 77 -307 318 -169 161 -321 299 -337 307 l-29 15 -176 -182z
m221 63 c10 -9 18 -20 18 -25 0 -5 -36 -49 -80 -99 -73 -83 -98 -129 -69 -129
7 0 53 41 104 91 l93 91 31 -23 c17 -13 30 -26 29 -30 -3 -8 -172 -192 -256
-278 l-43 -45 -74 74 c-41 41 -74 78 -73 81 4 10 291 309 296 309 3 0 14 -7
24 -17z m202 -192 c16 -18 12 -23 -85 -126 -102 -106 -103 -106 -119 -85 -16
21 -14 24 76 118 52 54 94 100 94 105 0 13 16 7 34 -12z m98 -88 c17 -15 13
-21 -84 -122 -57 -58 -106 -107 -109 -109 -3 -1 -11 9 -19 22 -12 24 -9 29 76
116 49 50 91 95 92 100 5 15 23 12 44 -7z m-569 -178 l136 -130 -99 -105 -98
-105 -39 35 c-21 19 -68 64 -105 99 l-67 64 71 79 c55 60 69 81 60 90 -10 10
-30 -6 -90 -65 -78 -78 -78 -78 -97 -57 -18 20 -18 21 11 53 69 77 169 177
175 175 3 -2 67 -61 142 -133z m660 88 c14 -17 8 -25 -85 -122 -82 -84 -104
-102 -117 -94 -9 6 -16 15 -16 20 0 11 185 213 195 213 4 0 14 -8 23 -17z
m107 -102 c0 -4 -45 -54 -100 -111 -95 -99 -101 -104 -117 -87 -17 16 -12 23
87 122 80 80 107 102 117 93 7 -6 13 -14 13 -17z m-1044 -233 c179 -165 425
-412 379 -380 -70 49 -555 506 -555 524 0 18 16 4 176 -144z m-260 10 c278
-257 654 -626 654 -642 0 -6 -5 -4 -10 4 -5 8 -10 12 -10 7 0 -7 -152 126
-385 337 -189 172 -374 358 -368 372 3 8 8 14 12 14 4 0 52 -41 107 -92z m261
-127 c218 -208 418 -410 363 -367 -91 72 -580 534 -580 547 0 23 33 -4 217
-180z m499 141 l22 -27 -97 -103 c-54 -56 -100 -99 -104 -96 -15 15 -6 36 35
82 l41 47 -51 -51 c-43 -43 -54 -50 -67 -40 -14 10 -3 26 80 114 53 56 102
102 108 101 7 0 22 -12 33 -27z m-747 -172 c236 -221 383 -369 341 -345 -63
36 -530 480 -530 503 0 18 0 18 189 -158z m401 -555 c25 -20 46 -40 47 -44 2
-3 -45 -7 -105 -8 -169 -2 -312 -45 -442 -133 -66 -44 -340 -313 -646 -634
-151 -158 -173 -178 -187 -165 -32 30 -53 45 -84 58 -18 7 -33 14 -33 15 0 1
177 179 393 396 428 431 442 448 504 625 26 74 28 91 28 236 l0 156 240 -232
c132 -128 260 -250 285 -270z m-1497 -989 c74 -27 110 -80 108 -160 -2 -92
-72 -156 -171 -156 -49 0 -56 3 -95 43 -91 91 -61 229 60 272 49 17 51 17 98
1z"/>
<path d="M8170 3137 c0 -2 15 -16 33 -33 l32 -29 -29 33 c-28 30 -36 37 -36
29z"/>
<path d="M7848 2953 c6 -2 18 -2 25 0 6 3 1 5 -13 5 -14 0 -19 -2 -12 -5z"/>
<path d="M6453 1979 c9 -5 22 -7 27 -4 6 3 10 1 10 -4 0 -6 5 -11 11 -11 8 0
8 5 -1 15 -7 8 -24 15 -39 15 -22 -1 -24 -2 -8 -11z"/>
<path d="M6367 1952 c-20 -22 -37 -67 -36 -95 0 -12 7 1 14 28 8 28 24 58 36
68 12 9 17 17 12 17 -6 0 -17 -8 -26 -18z"/>
<path d="M6530 1953 c0 -6 4 -14 9 -17 4 -3 14 -26 21 -51 10 -36 10 -51 0
-75 -18 -42 -69 -80 -109 -80 -39 0 -91 34 -89 58 1 9 0 33 -2 52 l-3 35 -6
-35 c-3 -19 -3 -36 1 -38 4 -2 4 -10 2 -17 -3 -8 6 -26 21 -41 24 -24 32 -26
83 -22 62 4 101 29 128 80 16 30 12 100 -6 106 -5 2 -8 8 -4 13 3 5 1 8 -5 7
-5 -2 -17 6 -25 17 -8 11 -16 15 -16 8z"/>
<path d="M1817 4408 c-56 -50 -142 -128 -192 -174 -49 -45 -175 -159 -280
-254 -104 -94 -192 -176 -193 -181 -4 -11 25 -46 176 -208 l116 -123 -57 -55
c-50 -48 -56 -58 -45 -72 7 -9 32 -39 55 -67 l42 -50 -26 -26 -26 -26 22 -29
c13 -15 48 -54 78 -86 l55 -58 35 21 c20 11 37 19 39 17 2 -2 -1 -21 -7 -42
-19 -66 -8 -172 24 -238 101 -204 346 -265 518 -127 32 25 44 29 120 31 94 3
84 7 268 -100 l104 -60 46 40 46 39 155 -157 c84 -87 240 -246 346 -353 l191
-195 6 -53 c19 -168 147 -282 315 -282 121 0 234 75 285 189 32 71 29 179 -7
253 -45 95 -142 167 -238 176 -46 4 -50 8 -210 176 -527 552 -512 536 -492
551 18 13 16 17 -36 69 l-54 56 -38 -37 c-26 -25 -38 -32 -38 -21 0 8 20 114
44 234 24 121 47 238 51 261 l7 43 -139 151 c-76 83 -164 180 -195 214 -61 66
-68 84 -43 105 8 7 15 17 15 22 0 15 -153 186 -173 193 -10 4 -29 0 -43 -9
-23 -16 -25 -15 -57 20 -67 77 -70 78 -112 34 -16 -16 -34 -30 -41 -30 -6 0
-42 35 -80 78 -98 111 -216 232 -226 232 -4 0 -54 -41 -111 -92z m246 -180
c54 -59 97 -111 97 -115 0 -5 -31 -39 -69 -77 l-68 -68 -50 54 c-87 92 -193
213 -193 219 0 4 32 37 71 74 l72 67 22 -23 c12 -13 65 -72 118 -131z m273
-123 c18 -28 35 -11 -182 -192 -166 -139 -171 -142 -100 -58 68 82 248 272
258 274 4 0 15 -10 24 -24z m-626 -112 c47 -52 98 -111 114 -130 l29 -35 -49
-49 c-44 -44 -74 -61 -74 -41 -1 8 -48 61 -152 170 l-70 74 53 54 c29 30 56
54 59 53 3 0 43 -44 90 -96z m822 15 l33 -27 -35 -36 c-63 -67 -484 -438 -656
-580 -93 -76 -171 -141 -174 -145 -21 -25 -120 -100 -120 -91 0 6 60 73 134
148 138 142 247 265 241 271 -5 5 -171 -116 -302 -218 -57 -45 -103 -77 -103
-73 0 22 555 531 815 748 33 28 68 58 79 67 19 17 20 17 38 -10 9 -15 32 -39
50 -54z m18 -166 c0 -10 -71 -71 -150 -128 -113 -83 -108 -71 21 45 92 82 129
106 129 83z m171 -188 c74 -80 135 -149 137 -153 2 -5 -25 -36 -60 -69 -73
-70 -178 -156 -178 -147 0 4 20 30 45 57 47 52 54 68 32 68 -14 0 -32 -11
-132 -85 -118 -87 -119 -89 29 80 37 42 46 59 38 67 -16 16 -36 4 -157 -93
-167 -134 -162 -121 30 79 69 72 71 75 51 91 -13 11 -37 -4 -143 -85 -70 -54
-135 -102 -143 -108 -32 -23 14 30 124 141 102 105 109 114 94 129 -15 15 -26
9 -150 -89 -73 -58 -135 -103 -138 -100 -6 6 370 359 386 363 1 0 62 -66 135
-146z m-1207 -111 c6 -11 4 -14 -5 -11 -17 6 -169 176 -169 190 0 10 159 -154
174 -179z m-20 -189 c9 -24 7 -28 -9 -14 -17 14 -20 30 -6 30 5 0 12 -7 15
-16z m503 -383 c72 -33 100 -107 67 -176 -32 -68 -120 -96 -184 -58 -34 20
-70 81 -70 117 0 53 44 110 96 126 41 12 44 12 91 -9z m1080 -176 l48 -44 -37
-37 -37 -38 -20 25 c-11 13 -20 29 -21 35 0 6 -9 19 -20 29 -20 18 -20 18 7
47 15 15 28 28 30 28 1 0 24 -20 50 -45z m119 -207 c482 -510 471 -498 442
-498 -13 0 -92 76 -367 354 -150 150 -172 177 -161 191 7 8 16 15 20 15 4 0
33 -28 66 -62z m632 -598 c98 -60 97 -201 -1 -274 -43 -32 -124 -28 -172 8
-90 69 -87 209 7 266 44 27 122 27 166 0z"/>
<path d="M1715 3870 c10 -11 20 -20 23 -20 3 0 -3 9 -13 20 -10 11 -20 20 -23
20 -3 0 3 -9 13 -20z"/>
<path d="M1925 2922 c-56 -11 -74 -80 -32 -126 50 -56 127 -25 127 52 0 54
-40 85 -95 74z"/>
<path d="M1451 4412 c-7 -13 -7 -22 1 -30 16 -16 29 -15 22 2 -3 7 2 16 12 20
12 4 15 2 10 -9 -3 -8 -1 -15 5 -15 6 0 9 10 7 23 -4 29 -43 35 -57 9z"/>
<path d="M7805 4390 c3 -5 11 -10 16 -10 6 0 7 5 4 10 -3 6 -11 10 -16 10 -6
0 -7 -4 -4 -10z"/>
<path d="M8796 4381 c-14 -15 -15 -24 -6 -40 14 -27 56 -28 70 -2 13 25 13 27
-6 45 -21 21 -37 20 -58 -3z"/>
<path d="M7727 4353 c-14 -13 -7 -61 12 -84 l19 -24 -1 27 c-1 14 -6 24 -11
21 -4 -3 -5 5 -1 17 5 15 4 20 -4 16 -15 -10 -14 7 1 22 7 7 8 12 2 12 -6 0
-14 -3 -17 -7z"/>
<path d="M7856 4295 c-3 -8 -1 -15 4 -15 6 0 10 7 10 15 0 8 -2 15 -4 15 -2 0
-6 -7 -10 -15z"/>
<path d="M7795 4250 c-19 -8 -19 -9 3 -9 12 -1 22 4 22 9 0 6 -1 10 -2 9 -2 0
-12 -4 -23 -9z"/>
<path d="M2665 4199 c-4 -6 -4 -13 -1 -16 3 -4 6 -1 6 6 0 9 8 11 26 7 17 -5
23 -3 19 4 -8 13 -42 13 -50 -1z"/>
<path d="M7533 4187 c-21 -27 -23 -36 -7 -51 8 -9 21 -16 27 -16 7 0 6 5 -3
11 -11 7 -12 12 -3 15 7 3 9 13 6 21 -5 12 -2 15 10 10 23 -9 21 0 -2 12 -13
8 -22 7 -28 -2z"/>
<path d="M6947 3173 c-3 -5 5 -8 18 -8 13 0 21 3 18 8 -2 4 -10 7 -18 7 -8 0
-16 -3 -18 -7z"/>
<path d="M3210 3080 c6 -11 13 -20 16 -20 2 0 0 9 -6 20 -6 11 -13 20 -16 20
-2 0 0 -9 6 -20z"/>
<path d="M6895 3050 c10 -11 20 -20 23 -20 3 0 -3 9 -13 20 -10 11 -20 20 -23
20 -3 0 3 -9 13 -20z"/>
<path d="M3652 2900 c0 -19 2 -27 5 -17 2 9 2 25 0 35 -3 9 -5 1 -5 -18z"/>
<path d="M1972 2294 c-30 -21 -30 -77 0 -98 32 -22 61 -20 86 7 27 29 28 61 2
87 -24 24 -57 26 -88 4z"/>
<path d="M8127 2292 c-39 -43 -8 -112 49 -112 49 0 79 87 39 116 -26 20 -69
17 -88 -4z"/>
<path d="M2444 2208 c-114 -12 -205 -79 -261 -188 -24 -49 -28 -66 -28 -150 0
-76 4 -104 21 -140 66 -140 221 -224 369 -200 112 18 201 82 256 182 32 59 34
69 34 158 0 87 -3 100 -32 156 -72 137 -197 201 -359 182z m139 -71 c18 -8 39
-22 47 -32 13 -16 13 -18 0 -12 -8 3 -40 13 -70 23 -55 17 -86 15 -179 -12
-17 -5 -22 -3 -19 6 11 35 159 53 221 27z m-43 -117 c29 0 81 -50 102 -97 27
-60 11 -121 -45 -168 -41 -35 -61 -41 -127 -36 -71 5 -139 78 -140 148 0 40
31 103 63 125 31 22 91 39 115 32 8 -2 22 -4 32 -4z"/>
<path d="M7609 2210 c-106 -18 -197 -92 -248 -199 -22 -47 -26 -70 -26 -146 0
-79 3 -97 28 -145 73 -142 214 -216 361 -189 120 21 215 93 265 198 22 47 26
70 26 141 -1 70 -5 95 -27 141 -68 147 -220 227 -379 199z m155 -74 c33 -14
53 -33 44 -42 -3 -2 -19 3 -36 11 -53 27 -121 29 -180 7 -46 -18 -53 -18 -50
-5 7 38 156 57 222 29z m-13 -132 c36 -18 76 -67 84 -103 3 -16 1 -48 -5 -72
-47 -174 -310 -139 -310 41 0 119 122 190 231 134z"/>
<path d="M4270 2146 c0 -2 7 -7 16 -10 8 -3 12 -2 9 4 -6 10 -25 14 -25 6z"/>
<path d="M4228 2133 c6 -2 18 -2 25 0 6 3 1 5 -13 5 -14 0 -19 -2 -12 -5z"/>
<path d="M4195 1980 c10 -11 20 -20 22 -20 2 0 -2 9 -9 20 -7 11 -17 20 -22
20 -5 0 -1 -9 9 -20z"/>
<path d="M5880 1985 c0 -5 5 -17 10 -25 5 -8 10 -10 10 -5 0 6 -5 17 -10 25
-5 8 -10 11 -10 5z"/>
<path d="M7070 1712 c-20 -6 -40 -32 -40 -53 0 -40 69 -66 98 -37 37 37 -8
106 -58 90z"/>
<path d="M3054 1685 c-15 -23 -15 -27 0 -51 23 -35 74 -31 95 8 14 24 14 28
-3 47 -27 29 -71 27 -92 -4z"/>
<path d="M4126 1514 c-23 -23 -20 -30 4 -9 11 10 20 20 20 22 0 7 -9 2 -24
-13z"/>
<path d="M4185 1520 c3 -5 11 -10 16 -10 6 0 7 5 4 10 -3 6 -11 10 -16 10 -6
0 -7 -4 -4 -10z"/>
<path d="M6070 1526 c0 -2 8 -10 18 -17 15 -13 16 -12 3 4 -13 16 -21 21 -21
13z"/>
<path d="M5992 1475 c0 -16 2 -22 5 -12 2 9 2 23 0 30 -3 6 -5 -1 -5 -18z"/>
<path d="M4100 1470 c0 -5 5 -10 11 -10 5 0 7 5 4 10 -3 6 -8 10 -11 10 -2 0
-4 -4 -4 -10z"/>
<path d="M4176 1425 c-11 -8 -15 -15 -9 -15 6 0 16 7 23 15 16 19 11 19 -14 0z"/>
<path d="M6000 1436 c0 -2 7 -7 16 -10 8 -3 12 -2 9 4 -6 10 -25 14 -25 6z"/>
</g>
</svg>
